<svg width="650" height="365" viewBox="0 0 650 365" fill="none" xmlns="http://www.w3.org/2000/svg">
<rect width="650" height="365" fill="url(#paint0_linear_85_124)"/>
<rect width="650" height="365" fill="black" fill-opacity="0.26"/>
<g filter="url(#filter0_f_85_124)">
<path fill-rule="evenodd" clip-rule="evenodd" d="M335.028 57.3498C336.594 57.8422 337.962 58.8214 338.933 60.1449C339.904 61.4684 340.428 63.0672 340.428 64.7087V103.278H371.283C372.694 103.277 374.078 103.663 375.285 104.395C376.491 105.126 377.474 106.175 378.126 107.426C378.779 108.677 379.075 110.083 378.984 111.491C378.892 112.899 378.417 114.255 377.608 115.412L323.612 192.549C322.672 193.896 321.327 194.907 319.773 195.436C318.218 195.966 316.536 195.985 314.97 195.492C313.404 194.999 312.036 194.019 311.065 192.695C310.094 191.371 309.571 189.771 309.572 188.129V149.56H278.717C277.306 149.561 275.922 149.175 274.715 148.443C273.509 147.712 272.526 146.664 271.874 145.412C271.221 144.161 270.925 142.755 271.016 141.347C271.108 139.939 271.583 138.583 272.392 137.427L326.388 60.2887C327.33 58.9449 328.675 57.9361 330.228 57.409C331.782 56.8819 333.463 56.8638 335.028 57.3575V57.3498Z" fill="url(#paint1_linear_85_124)"/>
<path d="M335.076 57.4237V57.4162C336.606 57.9119 337.942 58.8763 338.894 60.1736C339.859 61.4888 340.379 63.0775 340.379 64.7087V103.278V103.326H340.428H371.283C372.685 103.326 374.06 103.71 375.259 104.436C376.458 105.163 377.435 106.205 378.083 107.448C378.731 108.692 379.026 110.089 378.935 111.488C378.845 112.887 378.372 114.235 377.568 115.384L323.572 192.522L323.611 192.549L323.572 192.522C322.638 193.86 321.302 194.865 319.757 195.39C318.213 195.916 316.541 195.936 314.984 195.446C313.428 194.956 312.069 193.982 311.104 192.666C310.139 191.35 309.62 189.761 309.621 188.13V149.56V149.512H309.572H278.717C277.315 149.513 275.94 149.129 274.741 148.402C273.542 147.675 272.565 146.633 271.917 145.39C271.269 144.147 270.974 142.749 271.065 141.35C271.155 139.951 271.628 138.604 272.432 137.454L326.428 60.3166C327.363 58.9812 328.7 57.9788 330.244 57.455C331.788 56.9311 333.459 56.9132 335.013 57.4038L335.076 57.4237Z" stroke="#E9E9E9" stroke-width="0.0970742"/>
</g>
<path d="M272.802 137.713L326.798 60.5756L326.798 60.5755C327.678 59.3188 328.936 58.3754 330.389 57.8825C331.842 57.3895 333.414 57.3727 334.877 57.8343L335.193 57.9339C336.526 58.4216 337.687 59.2926 338.53 60.4407C339.438 61.6784 339.928 63.1736 339.928 64.7087V103.278V103.778H340.428H371.283H371.283C372.603 103.777 373.897 104.138 375.025 104.822C376.154 105.506 377.073 106.487 377.683 107.657C378.293 108.827 378.57 110.142 378.485 111.459C378.399 112.775 377.954 114.044 377.198 115.125L323.202 192.263L323.202 192.263C322.323 193.522 321.065 194.468 319.612 194.963C318.158 195.458 316.584 195.476 315.12 195.015C313.655 194.554 312.376 193.638 311.468 192.399C310.56 191.161 310.071 189.665 310.072 188.13V188.129V149.56V149.06H309.572H278.717H278.717C277.397 149.061 276.103 148.7 274.975 148.016C273.846 147.332 272.927 146.351 272.317 145.181C271.707 144.011 271.43 142.696 271.515 141.379C271.601 140.063 272.046 138.795 272.802 137.713C272.802 137.713 272.802 137.713 272.802 137.713Z" fill="url(#paint2_linear_85_124)" stroke="url(#paint3_linear_85_124)"/>
<g filter="url(#filter1_d_85_124)">
<path d="M222.637 234.403C222.419 232.368 221.503 230.784 219.887 229.65C218.288 228.516 216.206 227.949 213.644 227.949C211.842 227.949 210.297 228.221 209.007 228.765C207.718 229.308 206.732 230.046 206.049 230.978C205.365 231.91 205.016 232.974 205 234.17C205 235.164 205.225 236.026 205.676 236.756C206.142 237.486 206.771 238.107 207.563 238.62C208.355 239.117 209.233 239.536 210.196 239.878C211.159 240.219 212.129 240.507 213.108 240.74L217.581 241.858C219.383 242.277 221.114 242.844 222.776 243.559C224.454 244.273 225.953 245.174 227.273 246.261C228.609 247.349 229.665 248.661 230.441 250.199C231.218 251.736 231.606 253.538 231.606 255.604C231.606 258.4 230.892 260.861 229.463 262.989C228.034 265.102 225.968 266.756 223.266 267.952C220.579 269.132 217.325 269.722 213.504 269.722C209.792 269.722 206.569 269.148 203.835 267.998C201.117 266.849 198.989 265.171 197.452 262.966C195.93 260.76 195.106 258.073 194.982 254.905H203.486C203.61 256.567 204.123 257.949 205.023 259.052C205.924 260.155 207.097 260.978 208.541 261.521C210.001 262.065 211.632 262.337 213.434 262.337C215.313 262.337 216.96 262.057 218.373 261.498C219.802 260.923 220.92 260.131 221.728 259.122C222.536 258.097 222.947 256.901 222.963 255.534C222.947 254.291 222.582 253.266 221.868 252.459C221.153 251.635 220.151 250.952 218.862 250.408C217.589 249.849 216.098 249.352 214.389 248.917L208.961 247.519C205.031 246.51 201.925 244.98 199.642 242.93C197.374 240.864 196.24 238.123 196.24 234.706C196.24 231.894 197.001 229.433 198.523 227.32C200.061 225.208 202.15 223.569 204.79 222.404C207.431 221.224 210.421 220.634 213.76 220.634C217.146 220.634 220.113 221.224 222.66 222.404C225.223 223.569 227.234 225.192 228.694 227.274C230.154 229.339 230.907 231.716 230.954 234.403H222.637ZM238.939 282.42V233.215H247.233V239.132H247.722C248.157 238.262 248.771 237.338 249.563 236.36C250.355 235.366 251.427 234.519 252.778 233.82C254.129 233.106 255.853 232.749 257.95 232.749C260.715 232.749 263.208 233.455 265.429 234.869C267.665 236.267 269.436 238.34 270.741 241.089C272.061 243.823 272.721 247.178 272.721 251.154C272.721 255.083 272.076 258.423 270.787 261.172C269.498 263.921 267.743 266.018 265.522 267.462C263.301 268.907 260.785 269.629 257.974 269.629C255.923 269.629 254.223 269.287 252.871 268.604C251.52 267.921 250.433 267.097 249.61 266.134C248.802 265.156 248.173 264.232 247.722 263.362H247.373V282.42H238.939ZM247.21 251.107C247.21 253.422 247.536 255.448 248.188 257.188C248.856 258.928 249.812 260.287 251.054 261.265C252.312 262.228 253.834 262.71 255.62 262.71C257.484 262.71 259.045 262.213 260.303 261.219C261.561 260.209 262.509 258.834 263.146 257.095C263.798 255.34 264.124 253.344 264.124 251.107C264.124 248.886 263.806 246.914 263.169 245.19C262.532 243.466 261.585 242.114 260.327 241.136C259.069 240.157 257.5 239.668 255.62 239.668C253.819 239.668 252.289 240.142 251.031 241.089C249.773 242.037 248.817 243.365 248.165 245.073C247.528 246.782 247.21 248.793 247.21 251.107ZM295.553 269.699C292.058 269.699 289.029 268.93 286.467 267.392C283.904 265.855 281.916 263.704 280.502 260.939C279.105 258.174 278.406 254.944 278.406 251.247C278.406 247.55 279.105 244.312 280.502 241.532C281.916 238.752 283.904 236.593 286.467 235.055C289.029 233.517 292.058 232.749 295.553 232.749C299.048 232.749 302.076 233.517 304.639 235.055C307.202 236.593 309.182 238.752 310.58 241.532C311.993 244.312 312.7 247.55 312.7 251.247C312.7 254.944 311.993 258.174 310.58 260.939C309.182 263.704 307.202 265.855 304.639 267.392C302.076 268.93 299.048 269.699 295.553 269.699ZM295.599 262.943C297.494 262.943 299.079 262.422 300.352 261.382C301.626 260.325 302.573 258.912 303.195 257.141C303.831 255.371 304.15 253.398 304.15 251.224C304.15 249.034 303.831 247.053 303.195 245.283C302.573 243.497 301.626 242.076 300.352 241.019C299.079 239.963 297.494 239.435 295.599 239.435C293.658 239.435 292.043 239.963 290.754 241.019C289.48 242.076 288.525 243.497 287.888 245.283C287.267 247.053 286.956 249.034 286.956 251.224C286.956 253.398 287.267 255.371 287.888 257.141C288.525 258.912 289.48 260.325 290.754 261.382C292.043 262.422 293.658 262.943 295.599 262.943ZM328.292 248.032V269H319.858V233.215H327.919V239.295H328.339C329.162 237.292 330.474 235.7 332.276 234.519C334.093 233.339 336.338 232.749 339.009 232.749C341.479 232.749 343.63 233.277 345.463 234.333C347.311 235.389 348.74 236.919 349.749 238.923C350.774 240.926 351.279 243.357 351.264 246.215V269H342.83V247.519C342.83 245.128 342.209 243.256 340.966 241.905C339.739 240.553 338.038 239.878 335.864 239.878C334.388 239.878 333.076 240.204 331.927 240.856C330.793 241.493 329.9 242.417 329.247 243.629C328.61 244.84 328.292 246.308 328.292 248.032ZM388.121 242.673L380.433 243.512C380.215 242.736 379.835 242.006 379.291 241.322C378.763 240.639 378.048 240.087 377.148 239.668C376.247 239.249 375.144 239.039 373.839 239.039C372.084 239.039 370.609 239.42 369.413 240.181C368.232 240.942 367.65 241.928 367.665 243.139C367.65 244.18 368.03 245.027 368.807 245.679C369.599 246.331 370.904 246.867 372.721 247.286L378.825 248.591C382.211 249.321 384.727 250.478 386.373 252.063C388.035 253.647 388.874 255.72 388.89 258.283C388.874 260.535 388.214 262.523 386.909 264.247C385.62 265.956 383.826 267.291 381.528 268.254C379.229 269.217 376.588 269.699 373.606 269.699C369.226 269.699 365.701 268.783 363.029 266.95C360.358 265.102 358.766 262.531 358.253 259.238L366.477 258.446C366.85 260.061 367.642 261.281 368.854 262.104C370.065 262.927 371.642 263.339 373.583 263.339C375.587 263.339 377.194 262.927 378.406 262.104C379.633 261.281 380.246 260.263 380.246 259.052C380.246 258.027 379.85 257.18 379.058 256.512C378.281 255.845 377.07 255.332 375.424 254.975L369.319 253.693C365.887 252.979 363.347 251.775 361.701 250.082C360.055 248.374 359.239 246.215 359.255 243.605C359.239 241.4 359.837 239.489 361.049 237.874C362.276 236.243 363.977 234.985 366.151 234.1C368.341 233.199 370.865 232.749 373.723 232.749C377.916 232.749 381.217 233.642 383.624 235.428C386.047 237.214 387.546 239.629 388.121 242.673ZM411.454 269.699C407.959 269.699 404.93 268.93 402.367 267.392C399.805 265.855 397.817 263.704 396.403 260.939C395.005 258.174 394.306 254.944 394.306 251.247C394.306 247.55 395.005 244.312 396.403 241.532C397.817 238.752 399.805 236.593 402.367 235.055C404.93 233.517 407.959 232.749 411.454 232.749C414.948 232.749 417.977 233.517 420.54 235.055C423.102 236.593 425.083 238.752 426.481 241.532C427.894 244.312 428.601 247.55 428.601 251.247C428.601 254.944 427.894 258.174 426.481 260.939C425.083 263.704 423.102 265.855 420.54 267.392C417.977 268.93 414.948 269.699 411.454 269.699ZM411.5 262.943C413.395 262.943 414.979 262.422 416.253 261.382C417.527 260.325 418.474 258.912 419.095 257.141C419.732 255.371 420.05 253.398 420.05 251.224C420.05 249.034 419.732 247.053 419.095 245.283C418.474 243.497 417.527 242.076 416.253 241.019C414.979 239.963 413.395 239.435 411.5 239.435C409.559 239.435 407.943 239.963 406.654 241.019C405.381 242.076 404.425 243.497 403.789 245.283C403.167 247.053 402.857 249.034 402.857 251.224C402.857 253.398 403.167 255.371 403.789 257.141C404.425 258.912 405.381 260.325 406.654 261.382C407.943 262.422 409.559 262.943 411.5 262.943ZM435.759 269V233.215H443.936V239.179H444.309C444.962 237.113 446.08 235.521 447.664 234.403C449.264 233.269 451.089 232.702 453.139 232.702C453.605 232.702 454.125 232.725 454.7 232.772C455.29 232.803 455.78 232.857 456.168 232.935V240.693C455.811 240.569 455.244 240.46 454.467 240.367C453.706 240.258 452.968 240.204 452.254 240.204C450.716 240.204 449.334 240.538 448.107 241.206C446.895 241.858 445.94 242.767 445.241 243.932C444.542 245.096 444.193 246.44 444.193 247.962V269H435.759Z" fill="url(#paint4_linear_85_124)"/>
</g>
<defs>
<filter id="filter0_f_85_124" x="226" y="12" width="198" height="228.848" filterUnits="userSpaceOnUse" color-interpolation-filters="sRGB">
<feFlood flood-opacity="0" result="BackgroundImageFix"/>
<feBlend mode="normal" in="SourceGraphic" in2="BackgroundImageFix" result="shape"/>
<feGaussianBlur stdDeviation="22.5" result="effect1_foregroundBlur_85_124"/>
</filter>
<filter id="filter1_d_85_124" x="179.982" y="210.634" width="291.186" height="91.7858" filterUnits="userSpaceOnUse" color-interpolation-filters="sRGB">
<feFlood flood-opacity="0" result="BackgroundImageFix"/>
<feColorMatrix in="SourceAlpha" type="matrix" values="0 0 0 0 0 0 0 0 0 0 0 0 0 0 0 0 0 0 127 0" result="hardAlpha"/>
<feOffset dy="5"/>
<feGaussianBlur stdDeviation="7.5"/>
<feComposite in2="hardAlpha" operator="out"/>
<feColorMatrix type="matrix" values="0 0 0 0 0 0 0 0 0 0 0 0 0 0 0 0 0 0 0.34 0"/>
<feBlend mode="normal" in2="BackgroundImageFix" result="effect1_dropShadow_85_124"/>
<feBlend mode="normal" in="SourceGraphic" in2="effect1_dropShadow_85_124" result="shape"/>
</filter>
<linearGradient id="paint0_linear_85_124" x1="-9.68575e-06" y1="365" x2="626.504" y2="-36.6493" gradientUnits="userSpaceOnUse">
<stop stop-color="#BD00FF"/>
<stop offset="0.484375" stop-color="#FF00E5"/>
<stop offset="1" stop-color="#CD7BFF"/>
</linearGradient>
<linearGradient id="paint1_linear_85_124" x1="382.296" y1="55.153" x2="273.403" y2="208.122" gradientUnits="userSpaceOnUse">
<stop stop-color="#9400DA"/>
<stop offset="1" stop-color="#CB0086"/>
</linearGradient>
<linearGradient id="paint2_linear_85_124" x1="382.296" y1="55.153" x2="273.403" y2="208.122" gradientUnits="userSpaceOnUse">
<stop stop-color="#AD00FF"/>
<stop offset="1" stop-color="#FF00A8"/>
</linearGradient>
<linearGradient id="paint3_linear_85_124" x1="271" y1="196" x2="379" y2="57" gradientUnits="userSpaceOnUse">
<stop stop-color="#FF00A8"/>
<stop offset="0.484375" stop-color="#D701D4"/>
<stop offset="1" stop-color="#EDC6FF"/>
</linearGradient>
<linearGradient id="paint4_linear_85_124" x1="325" y1="206" x2="325" y2="312" gradientUnits="userSpaceOnUse">
<stop stop-color="white"/>
<stop offset="1" stop-color="#FF00A8"/>
</linearGradient>
</defs>
</svg>
