<svg width="800" height="800" viewBox="0 0 800 800" fill="none" xmlns="http://www.w3.org/2000/svg">
<rect width="800" height="800" rx="200" fill="#EBEDF0"/>
<path d="M563.568 249.56C533.484 235.756 501.224 225.586 467.494 219.762C466.88 219.649 466.266 219.93 465.95 220.492C461.801 227.871 457.205 237.498 453.987 245.065C417.708 239.633 381.615 239.633 346.08 245.065C342.861 237.33 338.099 227.871 333.931 220.492C333.615 219.949 333.001 219.668 332.387 219.762C298.676 225.568 266.415 235.738 236.313 249.56C236.052 249.672 235.829 249.86 235.681 250.103C174.49 341.521 157.727 430.692 165.951 518.757C165.988 519.188 166.23 519.6 166.564 519.862C206.936 549.51 246.044 567.509 284.424 579.439C285.039 579.627 285.69 579.402 286.08 578.896C295.159 566.498 303.253 553.425 310.192 539.677C310.601 538.872 310.21 537.917 309.373 537.598C296.536 532.729 284.313 526.792 272.555 520.049C271.625 519.506 271.55 518.176 272.406 517.539C274.88 515.685 277.355 513.756 279.718 511.808C280.145 511.452 280.741 511.377 281.243 511.602C358.489 546.869 442.117 546.869 518.451 511.602C518.954 511.358 519.55 511.434 519.996 511.789C522.359 513.737 524.833 515.685 527.326 517.539C528.182 518.176 528.126 519.506 527.196 520.049C515.438 526.922 503.214 532.729 490.359 537.58C489.522 537.898 489.15 538.872 489.559 539.677C496.647 553.406 504.74 566.479 513.652 578.878C514.024 579.402 514.693 579.627 515.308 579.439C553.875 567.509 592.982 549.51 633.353 519.862C633.707 519.6 633.93 519.206 633.968 518.775C643.809 416.962 617.484 328.523 564.182 250.122C564.051 249.86 563.829 249.672 563.568 249.56ZM321.727 465.134C298.471 465.134 279.308 443.783 279.308 417.562C279.308 391.341 298.099 369.99 321.727 369.99C345.541 369.99 364.518 391.528 364.145 417.562C364.145 443.783 345.354 465.134 321.727 465.134ZM478.563 465.134C455.308 465.134 436.145 443.783 436.145 417.562C436.145 391.341 454.935 369.99 478.563 369.99C502.377 369.99 521.354 391.528 520.982 417.562C520.982 443.783 502.377 465.134 478.563 465.134Z" fill="#5865F2"/>
</svg>
