<svg width="800" height="800" viewBox="0 0 800 800" fill="none" xmlns="http://www.w3.org/2000/svg">
<rect width="800" height="800" rx="200" fill="#EBEDF0"/>
<path d="M159 390.36C159 281.295 159 226.764 192.882 192.882C226.764 159 281.295 159 390.36 159H409.64C518.705 159 573.236 159 607.118 192.882C641 226.764 641 281.295 641 390.36V409.64C641 518.705 641 573.236 607.118 607.118C573.236 641 518.705 641 409.64 641H390.36C281.295 641 226.764 641 192.882 607.118C159 573.236 159 518.705 159 409.64V390.36Z" fill="#0077FF"/>
<path d="M415.46 506.242C305.604 506.242 242.945 430.929 240.334 305.609H295.362C297.17 397.591 337.737 436.553 369.87 444.586V305.609H421.687V384.938C453.419 381.524 486.753 345.374 498 305.609H549.816C541.18 354.613 505.03 390.763 479.324 405.624C505.03 417.674 546.203 449.205 561.868 506.242H504.829C492.579 468.083 462.055 438.561 421.687 434.544V506.242H415.46Z" fill="white"/>
</svg>
